<svg width="24" height="24" viewBox="0 0 24 24" fill="current" xmlns="http://www.w3.org/2000/svg">
<g clip-path="url(#clip0_220_1439)">
<path d="M10.8516 0.0515518C5.78907 0.571865 1.58439 4.20937 0.36095 9.11718C0.0890747 10.2047 0.0281372 10.7531 0.0281372 12C0.0281372 12.8297 0.0468872 13.2422 0.112512 13.6641C0.7922 18.1172 3.73595 21.7266 7.9922 23.3062C8.55001 23.5125 9.69376 23.7937 10.3828 23.8922C11.2266 24.0094 12.7781 24.0094 13.6172 23.8875C18.4734 23.1984 22.4531 19.6219 23.6391 14.8828C23.8969 13.8562 23.9766 13.1672 23.9766 12C23.9766 10.8328 23.8969 10.1437 23.6391 9.11718C22.5656 4.81874 19.1531 1.41562 14.8594 0.356239C14.4844 0.267178 13.9594 0.154678 13.6875 0.117178C13.0969 0.0281143 11.4422 -0.00938416 10.8516 0.0515518ZM12.8953 2.90624C15.0938 3.13124 17.1328 4.13437 18.6375 5.7328C21.7172 9.00468 21.975 13.9406 19.2563 17.5453C18.8813 18.0469 17.9859 18.9328 17.4844 19.3078C13.8141 22.0359 8.77501 21.675 5.55001 18.45C4.20001 17.1 3.33751 15.45 2.99064 13.5469C2.85001 12.7734 2.85001 11.2266 2.99064 10.4531C3.25314 9.00937 3.84376 7.64999 4.71095 6.49218C5.07657 6.00468 5.9672 5.10937 6.4547 4.74374C8.32501 3.3328 10.6172 2.67655 12.8953 2.90624Z" fill="current"/>
<path d="M11.1422 4.31715C8.51718 4.62184 6.21093 6.24371 5.0578 8.60152C4.2328 10.2984 4.04999 12.239 4.54687 14.0578C5.53593 17.6625 9.05624 20.0718 12.7734 19.6875C16.2328 19.3359 18.9797 16.7718 19.6266 13.2984C19.7344 12.6984 19.7344 11.3015 19.6266 10.7015C19.1859 8.35309 17.8312 6.4359 15.7828 5.25934C14.4422 4.49527 12.6844 4.13434 11.1422 4.31715ZM12.4078 5.80309C12.6375 5.96715 12.7031 6.16402 12.7031 6.67496V7.12496L12.8344 7.15309C14.2078 7.45309 15.1641 8.25934 15.4453 9.35152C15.5906 9.92809 15.4828 10.3218 15.1219 10.4953C14.8734 10.6171 14.7516 10.6171 14.5078 10.5C14.2922 10.3968 14.1094 10.125 14.1094 9.90934C14.1094 9.64684 14.0109 9.42184 13.7812 9.1734C13.5609 8.92965 13.1391 8.67652 12.8344 8.60152L12.7031 8.56871V9.95621V11.3437L12.8344 11.3718C14.2078 11.6718 15.1641 12.4781 15.4453 13.5703C15.6516 14.3812 15.3937 15.1828 14.7 15.8671C14.3953 16.1718 14.2312 16.289 13.875 16.4671C13.6312 16.589 13.2703 16.725 13.0781 16.7765L12.7266 16.8656L12.7031 17.3484C12.675 17.9203 12.6 18.0937 12.3281 18.2343C12.0891 18.3562 11.8922 18.3515 11.6625 18.225C11.3859 18.0703 11.325 17.9156 11.2969 17.3484L11.2734 16.8609L10.9219 16.7765C10.7297 16.725 10.3687 16.589 10.125 16.4671C9.15468 15.9843 8.48437 15.0281 8.48437 14.1234C8.48437 13.6078 9.02343 13.2562 9.48749 13.4765C9.72187 13.589 9.84374 13.7765 9.89062 14.1046C9.93749 14.4515 10.0687 14.7046 10.3172 14.925C10.4953 15.089 10.9266 15.3187 11.1937 15.3984L11.2969 15.4265L11.2875 14.0343L11.2734 12.6421L10.9219 12.5578C10.7297 12.5062 10.3687 12.3703 10.125 12.2484C9.52968 11.9531 8.99999 11.4421 8.74687 10.9218C7.96405 9.31402 9.04218 7.63121 11.1656 7.15309C11.2875 7.12496 11.2875 7.12496 11.3062 6.6234C11.3203 6.19215 11.3344 6.09371 11.4234 5.97184C11.6437 5.66715 12.1078 5.58746 12.4078 5.80309Z" fill="current"/>
<path d="M10.9594 8.67189C10.3031 8.93907 9.89062 9.42189 9.89062 9.91407C9.89062 10.1344 10.0875 10.5047 10.3125 10.7063C10.4953 10.8703 10.9219 11.1 11.1938 11.1797L11.2969 11.2078V9.89532C11.2969 8.87345 11.2828 8.57814 11.2406 8.58282C11.2078 8.58282 11.0813 8.62501 10.9594 8.67189Z" fill="current"/>
<path d="M12.7031 14.1094V15.4266L12.8109 15.3984C13.0781 15.3188 13.5047 15.0891 13.6875 14.925C13.9125 14.7234 14.1094 14.3531 14.1094 14.1328C14.1094 13.8656 14.0109 13.6453 13.7812 13.3922C13.5609 13.1484 13.1391 12.8953 12.8344 12.8203L12.7031 12.7875V14.1094Z" fill="current"/>
</g>
<defs>
<clipPath id="clip0_220_1439">
<rect width="24" height="24" fill="white"/>
</clipPath>
</defs>
</svg>
