<svg width="24" height="24" viewBox="0 0 24 24" fill="current" xmlns="http://www.w3.org/2000/svg">
<g clip-path="url(#clip0_202_443)">
<path d="M5.63434 0.09375C5.12341 0.229687 4.75778 0.440624 4.35934 0.84375C3.95153 1.24687 3.74528 1.60781 3.60934 2.1375C3.44059 2.79844 3.52497 3.51562 3.85309 4.13906C4.04997 4.51875 4.62184 5.09062 5.00153 5.2875C5.16091 5.37187 5.44684 5.47969 5.63434 5.53125L5.97653 5.62031H4.57966C3.04216 5.625 2.72341 5.6625 2.14684 5.90625C1.33591 6.25312 0.614032 6.975 0.276532 7.78125C0.00465677 8.42812 -0.00471824 8.5875 0.00934426 11.4656C0.0280943 13.9781 0.0327818 14.1 0.126532 14.3906C0.271844 14.8359 0.360907 15.0375 0.585907 15.375C1.03591 16.0687 1.94997 16.725 2.65309 16.8562L2.81247 16.8844V20.1656C2.81247 23.3578 2.81716 23.4469 2.90622 23.625C2.96716 23.7469 3.06559 23.8453 3.18747 23.9062C3.37028 24 3.44059 24 13.4062 24C23.3718 24 23.4422 24 23.625 23.9062C23.8359 23.7984 24 23.5266 24 23.2875C24 23.0203 23.8125 22.8047 23.0625 22.1859C22.664 21.8531 20.8031 20.3109 18.9281 18.7594L15.5156 15.9328V10.7766V5.625H18.75C21.9047 5.625 21.9937 5.62031 22.1718 5.53125C22.2937 5.47031 22.3922 5.37187 22.4531 5.25C22.5422 5.07187 22.5468 4.97812 22.5468 2.8125C22.5468 0.646873 22.5422 0.553123 22.4531 0.375C22.3922 0.253124 22.2937 0.154686 22.1718 0.09375C21.9937 0 21.9047 0 18.3281 0C14.7515 0 14.6625 0 14.4843 0.09375C14.3625 0.154686 14.264 0.253124 14.2031 0.375C14.114 0.553123 14.1093 0.646873 14.1093 3.09375V5.625L10.3968 5.62031H6.67966L7.02184 5.53125C7.53747 5.39531 7.89841 5.18437 8.29684 4.78125C8.70466 4.37344 8.9156 4.00781 9.04684 3.4875C9.2156 2.82656 9.13122 2.10938 8.80309 1.48594C8.60622 1.10625 8.03434 0.534374 7.65466 0.3375C7.03591 0.014061 6.29059 -0.0750008 5.63434 0.09375ZM6.95622 1.56562C7.44841 1.80469 7.71091 2.24062 7.71091 2.8125C7.71091 3.21094 7.61247 3.47812 7.36403 3.76406C6.97966 4.19531 6.25309 4.33125 5.70934 4.06406C4.95934 3.69375 4.70153 2.76094 5.15622 2.04844C5.53122 1.45781 6.30934 1.25156 6.95622 1.56562ZM21.1406 2.8125V4.21875H18.3281H15.5156V2.8125V1.40625H18.3281H21.1406V2.8125ZM14.1093 7.73438V8.4375H11.5547C9.08434 8.4375 8.99059 8.44219 8.81247 8.53125C8.69059 8.59219 8.59216 8.69062 8.53122 8.8125C8.44216 8.99062 8.43747 9.08437 8.43747 11.2969C8.43747 13.5094 8.44216 13.6031 8.53122 13.7812C8.69997 14.1094 8.85934 14.1562 9.84372 14.1562C10.8281 14.1562 10.9875 14.2031 11.1562 14.5312C11.2453 14.7047 11.25 14.8031 11.25 16.5141V18.3094L10.5609 18.8812L9.86716 19.4484L9.84372 17.7516C9.81559 15.8438 9.81559 15.8344 9.46872 15.6562C9.29528 15.5672 9.19685 15.5625 7.73434 15.5625C6.27184 15.5625 6.17341 15.5672 5.99997 15.6562C5.87809 15.7172 5.77966 15.8156 5.71872 15.9375C5.62966 16.1156 5.62497 16.2047 5.62497 19.3594V22.5938H4.92184H4.21872V15.7969C4.21872 9.075 4.21872 8.99531 4.12497 8.8125C4.01716 8.60156 3.74997 8.4375 3.51559 8.4375C3.28122 8.4375 3.01403 8.60156 2.90622 8.8125C2.81716 8.99062 2.81247 9.07969 2.81247 12.2109C2.81247 13.9781 2.79841 15.4219 2.78434 15.4219C2.77028 15.4219 2.62966 15.3562 2.47497 15.2719C2.15622 15.1031 1.80934 14.7422 1.64528 14.4187C1.41091 13.9453 1.40622 13.875 1.40622 11.3344C1.40622 8.81719 1.41559 8.6625 1.63122 8.20312C1.78122 7.87969 2.24059 7.41562 2.55466 7.26562C3.04684 7.03594 2.91091 7.04062 8.68591 7.03594L14.1093 7.03125V7.73438ZM14.1093 12.8906V15.9328L13.3968 16.5281L12.6797 17.1187L12.6515 15.7687C12.6375 15.0234 12.6047 14.3484 12.5765 14.2734C12.45 13.9031 12.2859 13.6406 12.0234 13.3781C11.5687 12.9187 11.1 12.75 10.289 12.75H9.84372V11.2969V9.84375H11.9765H14.1093V12.8906ZM8.43278 18.8062V20.6484L8.00153 21C7.76716 21.1922 7.45309 21.4547 7.30309 21.5766L7.03122 21.8062V19.3875V16.9687H7.73434H8.43747L8.43278 18.8062ZM18.0984 19.9031L21.3187 22.5703L18.0656 22.5844C16.275 22.5891 13.35 22.5891 11.5593 22.5844L8.31091 22.5703L11.55 19.8844C13.3312 18.4125 14.8078 17.2078 14.8312 17.2172C14.8547 17.2266 16.3265 18.4312 18.0984 19.9031Z" fill="current"/>
</g>
<defs>
<clipPath id="clip0_202_443">
<rect width="24" height="24" fill="white"/>
</clipPath>
</defs>
</svg>
