<svg width="24" height="24" viewBox="0 0 24 24" fill="current" xmlns="http://www.w3.org/2000/svg">
<path d="M22.1538 7.03286H18.1192C18.7199 6.2999 19.0158 5.36401 18.9457 4.41892C18.8755 3.47383 18.4446 2.59189 17.7422 1.95569C17.0398 1.31948 16.1197 0.977717 15.1723 1.00114C14.2249 1.02456 13.3228 1.41138 12.6526 2.08152C12.3854 2.36004 12.165 2.68001 12 3.02899C11.835 2.68 11.6145 2.36002 11.3472 2.08146C10.6771 1.41133 9.775 1.02453 8.8276 1.00113C7.8802 0.97772 6.96007 1.3195 6.25769 1.95571C5.5553 2.59193 5.12444 3.47386 5.05429 4.41895C4.98414 5.36404 5.28008 6.29992 5.88084 7.03286H1.84615C1.35669 7.03341 0.88744 7.22809 0.541339 7.5742C0.195238 7.9203 0.000554898 8.38955 0 8.87901V12.5713C0.000554898 13.0608 0.195238 13.53 0.541339 13.8761C0.88744 14.2222 1.35669 14.4169 1.84615 14.4175V21.8021C1.84671 22.2915 2.0414 22.7608 2.3875 23.1069C2.7336 23.453 3.20285 23.6477 3.69231 23.6482H20.3077C20.7972 23.6477 21.2664 23.453 21.6125 23.1069C21.9586 22.7608 22.1533 22.2915 22.1538 21.8021V14.4175C22.6433 14.4169 23.1126 14.2222 23.4587 13.8761C23.8048 13.53 23.9994 13.0608 24 12.5713V8.87901C23.9994 8.38955 23.8048 7.9203 23.4587 7.5742C23.1126 7.22809 22.6433 7.03341 22.1538 7.03286ZM13.958 3.38694C14.1295 3.21544 14.333 3.07938 14.557 2.98654C14.781 2.89371 15.0211 2.84591 15.2636 2.84587C15.5061 2.84584 15.7462 2.89358 15.9702 2.98635C16.1942 3.07913 16.3978 3.21513 16.5693 3.38659C16.7407 3.55805 16.8767 3.76161 16.9695 3.98564C17.0623 4.20966 17.11 4.44978 17.11 4.69226C17.11 4.93474 17.0622 5.17484 16.9693 5.39885C16.8765 5.62286 16.7405 5.82638 16.569 5.9978C15.9989 6.56794 14.3506 6.88809 12.9624 6.9935C13.0679 5.60517 13.388 3.95702 13.958 3.38694ZM7.43093 3.38694C7.77744 3.04125 8.24692 2.84711 8.73638 2.8471C9.22584 2.8471 9.69532 3.04123 10.0418 3.38692C10.612 3.95705 10.9321 5.60534 11.0376 6.99347C9.64926 6.88803 8.00109 6.56788 7.43104 5.9978C7.08535 5.65131 6.8912 5.18185 6.89117 4.6924C6.89115 4.20295 7.08526 3.73347 7.43093 3.38694ZM1.84615 8.87901H11.0769V12.5713H1.84615V8.87901ZM3.69231 14.4175H11.0769V21.8021H3.69231V14.4175ZM20.3077 21.8021H12.9231V14.4175H20.3077V21.8021ZM22.1538 12.5713H12.9231V8.87901H22.1538L22.155 12.5713L22.1538 12.5713Z" fill="current"/>
</svg>
