<svg width="24" height="24" viewBox="0 0 24 24" fill="current" xmlns="http://www.w3.org/2000/svg">
<g clip-path="url(#clip0_202_436)">
<path d="M11.6953 0.0562363C11.6203 0.084362 11.4797 0.159363 11.3906 0.224987C11.1891 0.379675 0.435955 10.139 0.290643 10.3078C-0.0937323 10.739 -0.0843572 11.3062 0.304705 11.6953C0.717205 12.1078 1.28439 12.0937 1.77189 11.6531C1.87033 11.5594 1.96877 11.4844 1.98752 11.4844C2.00158 11.4844 2.01564 14.1281 2.01564 17.3531C2.01564 22.9312 2.02033 23.2359 2.10471 23.4141C2.21252 23.6531 2.47502 23.8875 2.70471 23.9484C2.95314 24.0187 21.0469 24.0187 21.2953 23.9484C21.525 23.8875 21.7875 23.6531 21.8953 23.4141C21.9797 23.2359 21.9844 22.9312 21.9844 17.3531C21.9844 14.1281 21.9985 11.4844 22.0125 11.4844C22.0313 11.4844 22.1297 11.5594 22.2281 11.6531C22.7156 12.0937 23.2828 12.1078 23.6953 11.6953C24.0656 11.325 24.0938 10.7906 23.7703 10.3781C23.5828 10.139 12.586 0.187487 12.4266 0.112488C12.2156 0.0140495 11.8828 -0.0140762 11.6953 0.0562363ZM16.05 6.0328L20.0156 9.6328V15.8062V21.9844H18H15.9891L15.9703 18.6234C15.9563 14.8453 15.975 15.0891 15.5906 14.2734C15.1031 13.2515 14.2172 12.4969 13.1016 12.1594C12.7266 12.0469 12.6047 12.0328 12 12.0328C11.3953 12.0328 11.2735 12.0469 10.8985 12.1594C9.78283 12.4969 8.89689 13.2515 8.40939 14.2734C8.02502 15.0891 8.04377 14.8453 8.0297 18.6234L8.01095 21.9844H6.00002H3.98439V15.8062V9.6328L7.97345 6.00936C10.3453 3.8578 11.9906 2.3953 12.0281 2.40936C12.061 2.42342 13.8703 4.05467 16.05 6.0328ZM12.8203 14.1937C13.336 14.4375 13.7203 14.864 13.9078 15.4125C13.9781 15.6047 13.9875 16.0172 14.0016 18.8062L14.0203 21.9844H12H9.9797L9.99845 18.8062C10.0125 16.0172 10.0219 15.6047 10.0922 15.4125C10.3125 14.7703 10.7953 14.2969 11.461 14.0765C11.5781 14.0391 11.8125 14.0203 12.0703 14.0297C12.4313 14.0391 12.5391 14.0625 12.8203 14.1937Z" fill="current"/>
</g>
<defs>
<clipPath id="clip0_202_436">
<rect width="24" height="24" fill="white"/>
</clipPath>
</defs>
</svg>
