<svg width="10" height="16" viewBox="0 0 10 16" fill="none" xmlns="http://www.w3.org/2000/svg">
<path d="M0.258465 8.49188L9.72899 15.8889C9.75374 15.9084 9.78348 15.9205 9.8148 15.9238C9.84611 15.9272 9.87774 15.9216 9.90604 15.9078C9.93434 15.894 9.95817 15.8724 9.97479 15.8457C9.99141 15.8189 10.0001 15.788 10 15.7565L10 14.1326C10 14.0297 9.95168 13.9309 9.87185 13.8679L2.30887 7.96247L9.87185 2.05705C9.95378 1.99403 10 1.89529 10 1.79235L10 0.168409C10 0.0276537 9.83824 -0.0500765 9.729 0.0360574L0.258465 7.43307C0.177971 7.49585 0.112856 7.57617 0.0680688 7.66791C0.0232813 7.75965 2.11503e-06 7.86039 2.08826e-06 7.96247C2.06148e-06 8.06456 0.0232812 8.1653 0.0680686 8.25704C0.112856 8.34878 0.177971 8.42909 0.258465 8.49188Z" fill="#828282"/>
</svg>
