<svg width="8" height="12" viewBox="0 0 8 12" fill="none" xmlns="http://www.w3.org/2000/svg">
<path d="M7.79323 5.601L0.216807 0.0270356C0.197009 0.0123546 0.173217 0.003231 0.148163 0.000712494C0.123108 -0.00180601 0.0978079 0.00238274 0.0751671 0.0127978C0.0525263 0.0232128 0.0334635 0.0394318 0.0201676 0.0595918C0.00687167 0.0797519 -0.000118021 0.103035 1.4851e-06 0.126769L1.27114e-06 1.35048C1.25757e-06 1.42805 0.0386566 1.50245 0.102522 1.54994L6.1529 5.99993L0.10252 10.4499C0.0369743 10.4974 -3.41174e-07 10.5718 -3.54737e-07 10.6494L-5.68697e-07 11.8731C-5.87242e-07 11.9792 0.12941 12.0377 0.216805 11.9728L7.79323 6.39887C7.85762 6.35155 7.90971 6.29103 7.94554 6.2219C7.98137 6.15277 8 6.07686 8 5.99993C8 5.92301 7.98137 5.84709 7.94554 5.77797C7.90971 5.70884 7.85762 5.64832 7.79323 5.601Z" fill="#828282"/>
</svg>
