<svg width="24" height="24" viewBox="0 0 24 24" fill="current" xmlns="http://www.w3.org/2000/svg">
<g clip-path="url(#clip0_202_439)">
<path d="M11.6625 0.0609255C11.4422 0.145301 11.2125 0.337488 11.0625 0.562489C10.9969 0.660926 10.7485 1.13905 10.5047 1.62655L10.0641 2.51249L9.14533 2.64374C7.7672 2.84061 7.60314 2.89218 7.30314 3.22499C7.05939 3.49686 6.98908 3.82968 7.10158 4.19999C7.18126 4.4578 7.24689 4.53749 8.03439 5.33436L8.87814 6.19218L8.7047 7.2328C8.50783 8.40468 8.49845 8.51718 8.60626 8.83593C8.79376 9.38436 9.42658 9.65624 10.0219 9.44999C10.125 9.41249 10.6125 9.16874 11.1047 8.91093L12.0047 8.43749L12.9281 8.92499C13.4344 9.19218 13.9313 9.43593 14.0297 9.46874C14.1328 9.50155 14.3438 9.51561 14.5031 9.50624C14.8828 9.4828 15.1547 9.30468 15.3235 8.97655C15.4922 8.65311 15.4828 8.25936 15.286 7.11561L15.1219 6.18749L15.9656 5.33436C16.6735 4.61249 16.8188 4.43905 16.8891 4.24218C16.9875 3.95624 16.9875 3.82499 16.8985 3.55311C16.7719 3.19218 16.4485 2.93436 15.9844 2.82186C15.8672 2.79843 15.361 2.71405 14.8547 2.64374L13.936 2.51249L13.4344 1.51405C12.9328 0.510926 12.7641 0.271863 12.45 0.1078C12.2578 0.00936317 11.8688 -0.0140743 11.6625 0.0609255ZM12.3469 2.77499C12.7547 3.64218 12.8531 3.7828 13.0922 3.89061C13.2 3.93749 13.636 4.02186 14.0625 4.07811C14.4891 4.13905 14.8547 4.19999 14.8735 4.21874C14.8922 4.23749 14.6391 4.50936 14.3016 4.82343C13.9688 5.13749 13.6641 5.46561 13.6219 5.55468C13.5188 5.7703 13.5281 6.04686 13.6828 6.89999C13.7531 7.3078 13.8047 7.64061 13.7953 7.64061C13.786 7.64061 13.4625 7.47186 13.0735 7.26561C12.225 6.81561 12.0656 6.76405 11.8266 6.83436C11.7281 6.86249 11.3344 7.05468 10.9453 7.26093C10.4953 7.49999 10.2375 7.61249 10.2281 7.57499C10.2188 7.54218 10.2703 7.1953 10.336 6.81093C10.4906 5.87343 10.4906 5.69061 10.3219 5.45624C10.2469 5.3578 9.93751 5.04374 9.63751 4.76249C9.33751 4.48124 9.10783 4.23749 9.12658 4.21874C9.14533 4.19999 9.51095 4.13905 9.93751 4.07811C10.3641 4.02186 10.8 3.93749 10.9078 3.89061C11.1516 3.7828 11.2641 3.61874 11.6766 2.74686C11.8406 2.3953 11.9906 2.10936 12.0047 2.10936C12.0188 2.10936 12.1735 2.40936 12.3469 2.77499Z" fill="current"/>
<path d="M8.59219 10.4812C8.5125 10.5234 8.40938 10.5937 8.36719 10.6406C8.15625 10.875 8.16094 10.7719 8.15625 16.7672V22.4531H6.07031H3.98438V18.6844V14.9109L5.52188 14.8969C7.27031 14.8828 7.3125 14.8734 7.52344 14.5078C7.74844 14.1328 7.64531 13.7203 7.27031 13.4672L7.11094 13.3594H5.07188C3.08438 13.3594 3.03281 13.3641 2.85938 13.4578C2.76094 13.5141 2.63906 13.6359 2.58281 13.7344C2.48438 13.9125 2.48438 13.9172 2.48438 18.1781V22.4484L1.51406 22.4625C0.595313 22.4766 0.529688 22.4812 0.365625 22.5844C0.173438 22.7016 0 23.0109 0 23.2312C0 23.4797 0.1875 23.7797 0.421875 23.8969L0.628125 24H12H23.3719L23.5781 23.8922C23.8125 23.7797 24 23.4797 24 23.2312C24 23.0109 23.8266 22.7016 23.6344 22.5844C23.4703 22.4812 23.4047 22.4766 22.5141 22.4625L21.5625 22.4484V19.4859C21.5625 17.8547 21.5391 16.4391 21.5156 16.3406C21.4688 16.1297 21.3563 15.9609 21.1688 15.825C21.0422 15.7312 20.9766 15.7266 19.0172 15.7125L16.9922 15.6984L16.7859 15.8062C16.4719 15.9656 16.3828 16.1203 16.3828 16.4766C16.3828 16.8328 16.4766 16.9875 16.7812 17.1422C16.9828 17.2453 17.025 17.25 18.5016 17.25H20.0156V19.8516V22.4531H17.9297H15.8438V17.8219C15.8438 14.8406 15.825 13.1344 15.7969 13.0219C15.7359 12.8109 15.4359 12.5297 15.2156 12.4922C14.8734 12.4266 14.5266 12.6 14.3906 12.9047C14.3016 13.0922 14.2969 13.2656 14.2969 17.775V22.4531H12H9.70312L9.7125 17.1891L9.72656 11.9297L12.5484 11.9062C15.3234 11.8828 15.3703 11.8828 15.5016 11.7844C15.9188 11.4703 15.9188 10.8375 15.5063 10.5375L15.3516 10.4297L12.0469 10.4203C9.11719 10.4109 8.72344 10.4156 8.59219 10.4812Z" fill="current"/>
</g>
<defs>
<clipPath id="clip0_202_439">
<rect width="24" height="24" fill="white"/>
</clipPath>
</defs>
</svg>
