<?xml version="1.0" standalone="no"?>
<!DOCTYPE svg PUBLIC "-//W3C//DTD SVG 20010904//EN"
 "http://www.w3.org/TR/2001/REC-SVG-20010904/DTD/svg10.dtd">
<svg version="1.0" xmlns="http://www.w3.org/2000/svg"
 width="512.000000pt" height="512.000000pt" viewBox="0 0 512.000000 512.000000"
 preserveAspectRatio="xMidYMid meet">

<g transform="translate(0.000000,512.000000) scale(0.100000,-0.100000)"
fill="current" stroke="none">
<path d="M2413 4876 c-236 -45 -438 -178 -561 -369 -60 -92 -1714 -2960 -1754
-3042 -99 -198 -121 -393 -68 -601 76 -296 308 -526 610 -606 l85 -23 1845 0
1845 0 90 28 c287 90 496 298 581 582 23 76 27 110 28 215 1 136 -12 217 -52
320 -22 57 -1676 2938 -1785 3110 -116 182 -316 327 -519 375 -92 22 -259 27
-345 11z m391 -1015 c71 -17 126 -90 126 -170 0 -58 -179 -1608 -190 -1652
-21 -78 -92 -129 -180 -129 -88 0 -158 52 -181 133 -11 40 -189 1593 -189
1649 0 78 49 147 119 168 36 11 448 11 495 1z m-91 -2264 c141 -64 215 -192
205 -350 -9 -132 -81 -241 -198 -296 -48 -23 -68 -26 -160 -26 -93 0 -112 3
-162 27 -70 32 -133 96 -167 168 -22 47 -26 69 -26 150 0 84 3 102 29 157 43
94 120 158 226 189 68 20 187 11 253 -19z"/>
</g>
</svg>
